# xmcd
#
# Track frame offsets:
#	150
#	21024
#	38561
#	56719
#	69935
#	92322
#	107048
#	122774
#	139486
#	155744
#
# Disc length: 2350
#
# Revision: 1
# Processed by: cddbd v1.5.1PL0 Copyright (c) Steve Scherf et al.
# Submitted via: dBpowerAMP V4.0
# Normalized: r0:DSETVAR1,TDELIM( - )
#
DISCID=80092c0a
DTITLE=Various Artist - The Best of Blue - Spa-tacular Songs For Singing Out Loud
DYEAR=2002
DGENRE=
TTITLE0=Simply Red - Blue
TTITLE1=Once Blue - Save Me
TTITLE2=Caleb - Blue
TTITLE3=The Smithereens - Blue Period
TTITLE4=Bim Skala Bim - Blue (live)
TTITLE5=Killjoys - Sometimes Blue
TTITLE6=Nicola Hitchcock - Queen of the Blues
TTITLE7=Patty Griffin - Blue Sky
TTITLE8=Everything But The Girl - Blue Moon Rose
TTITLE9=Squirrel Nut Zippers - Blue Angel
EXTD=
EXTT0=
EXTT1=
EXTT2=
EXTT3=
EXTT4=
EXTT5=
EXTT6=
EXTT7=
EXTT8=
EXTT9=
PLAYORDER=
